<?xml version="1.0" encoding="utf-8"?>
<!-- Generator: Adobe Illustrator 16.0.0, SVG Export Plug-In . SVG Version: 6.00 Build 0)  -->
<!DOCTYPE svg PUBLIC "-//W3C//DTD SVG 1.1//EN" "http://www.w3.org/Graphics/SVG/1.1/DTD/svg11.dtd">
<svg version="1.1" id="svg2572" xmlns:svg="http://www.w3.org/2000/svg"
	 xmlns="http://www.w3.org/2000/svg" xmlns:xlink="http://www.w3.org/1999/xlink" x="0px" y="0px" width="999.999px"
	 height="719.115px" viewBox="-436 -363.038 999.999 719.115" enable-background="new -436 -363.038 999.999 719.115"
	 xml:space="preserve">
<path id="path3380" d="M-329.646,326.43c0,12.177,0,18.745,1.999,20.462c1.614,1.427,4.074,2.083,11.498,2.083
	c5.051,0,8.762-0.084,11.162-2.655c1.152-1.251,2.262-3.914,2.464-5.707c0.099-0.869,0.286-1.457,1.049-1.457
	c0.66,0,0.774,0.488,0.774,1.641c0,1.053-0.675,8.179-1.461,10.956c-0.564,2.09-1.003,2.548-5.974,2.548
	c-6.863,0-11.826-0.183-16.113-0.26c-4.272-0.198-7.694-0.305-11.57-0.305c-1.076,0-3.174,0-5.451,0.106
	c-2.186,0-4.662,0.198-6.562,0.198c-1.247,0-1.899-0.305-1.899-0.977c0-0.457,0.362-0.732,1.514-0.732
	c1.438,0,2.586-0.213,3.437-0.404c1.873-0.373,2.373-2.487,2.735-5.226c0.488-4.014,0.488-11.505,0.488-20.271v-16.746
	c0-14.512,0-17.151-0.198-20.195c-0.164-3.242-0.95-4.784-4.101-5.425c-0.725-0.183-1.9-0.274-3.124-0.274
	c-1.026,0-1.637-0.198-1.637-0.87c0-0.679,0.687-0.869,2.071-0.869c4.501,0,10.502,0.29,13.062,0.29c2.327,0,9.251-0.29,12.962-0.29
	c1.324,0,2.01,0.19,2.01,0.869c0,0.672-0.587,0.87-1.712,0.87c-1.049,0-2.586,0.092-3.712,0.274
	c-2.586,0.48-3.323,2.105-3.536,5.425c-0.176,3.044-0.176,5.684-0.176,20.195V326.43z M-283.977,309.684
	c0-14.512,0-17.151-0.164-20.195c-0.202-3.242-1.152-4.86-3.25-5.349c-1.049-0.259-2.273-0.351-3.425-0.351
	c-0.95,0-1.538-0.198-1.538-0.977c0-0.572,0.763-0.763,2.3-0.763c3.639,0,9.625,0.29,12.375,0.29c2.399,0,7.984-0.29,11.624-0.29
	c1.221,0,1.999,0.19,1.999,0.763c0,0.778-0.564,0.977-1.514,0.977c-0.973,0-1.709,0.092-2.861,0.274
	c-2.586,0.48-3.337,2.105-3.536,5.425c-0.164,3.044-0.164,5.684-0.164,20.195v16.746c0,9.239,0,16.731,0.363,20.852
	c0.263,2.548,0.927,4.272,3.811,4.646c1.339,0.191,3.414,0.404,4.853,0.404c1.049,0,1.51,0.275,1.51,0.732
	c0,0.672-0.748,0.977-1.8,0.977c-6.298,0-12.283-0.305-14.847-0.305c-2.186,0-8.171,0.305-12.009,0.305c-1.24,0-1.9-0.305-1.9-0.977
	c0-0.457,0.385-0.732,1.538-0.732c1.411,0,2.56-0.213,3.425-0.404c1.896-0.373,2.46-1.999,2.773-4.753
	c0.439-4.013,0.439-11.505,0.439-20.744V309.684z M-183.772,348.349c0,2.595-0.099,2.755-1.225,3.418
	c-6.199,3.25-15.522,4.288-22.945,4.288c-23.334,0-43.957-11.024-43.957-37.323c0-15.197,7.889-25.887,16.548-31.12
	c9.125-5.516,17.571-6.164,25.608-6.164c6.561,0,14.935,1.121,16.834,1.503c2.014,0.366,5.322,0.938,7.522,1.061
	c1.152,0.083,1.316,0.465,1.316,1.105c0,1.076-0.652,3.724-0.652,15.633c0,1.526-0.275,1.999-1.026,1.999
	c-0.709,0-0.885-0.473-0.95-1.236c-0.324-2.159-0.786-5.249-3.25-7.927c-2.861-3.021-10.472-7.393-21.233-7.393
	c-5.249,0-12.21,0.382-18.844,5.897c-5.326,4.471-8.751,11.612-8.751,23.361c0,20.432,13.023,35.767,33.107,35.767
	c2.487,0,5.814,0,8.099-1.068c1.423-0.648,1.812-1.885,1.812-3.524v-8.935c0-4.753,0-8.369-0.099-11.223
	c-0.099-3.266-0.95-4.761-4.101-5.447c-0.759-0.184-2.35-0.26-3.712-0.26c-0.851,0-1.412-0.213-1.412-0.763
	c0-0.763,0.664-0.961,1.976-0.961c4.948,0,10.96,0.282,13.821,0.282c2.949,0,8-0.282,11.15-0.282c1.225,0,1.9,0.198,1.9,0.961
	c0,0.55-0.576,0.763-1.24,0.763c-0.763,0-1.411,0.076-2.56,0.26c-2.586,0.473-3.54,2.098-3.639,5.447
	c-0.099,2.854-0.099,6.653-0.099,11.414V348.349z M-110.961,313.048c0.286,0,0.561-0.19,0.561-0.687v-2.007
	c0-14.45,0-17.12-0.172-20.157c-0.214-3.25-0.95-4.775-4.101-5.432c-0.774-0.198-2.388-0.29-3.712-0.29
	c-1.076,0-1.637-0.198-1.637-0.87c0-0.655,0.66-0.839,2.011-0.839c5.149,0,11.124,0.29,13.71,0.29c2.3,0,8.274-0.29,11.986-0.29
	c1.35,0,1.999,0.184,1.999,0.839c0,0.672-0.561,0.87-1.697,0.87c-0.79,0-1.614,0.092-2.789,0.29
	c-2.56,0.466-3.323,2.098-3.487,5.432c-0.198,3.037-0.198,5.707-0.198,20.157v16.777c0,8.751,0,16.288,0.484,20.362
	c0.301,2.655,0.839,4.761,3.689,5.135c1.324,0.198,3.437,0.39,4.887,0.39c1.026,0,1.487,0.274,1.487,0.763
	c0,0.687-0.763,0.946-1.888,0.946c-6.199,0-12.172-0.26-14.858-0.26c-2.201,0-8.175,0.26-11.887,0.26
	c-1.351,0-1.999-0.26-1.999-0.946c0-0.488,0.336-0.763,1.511-0.763c1.412,0,2.563-0.191,3.437-0.39
	c1.915-0.374,2.376-2.479,2.762-5.226c0.462-3.983,0.462-11.521,0.462-20.271v-8.4c0-0.374-0.275-0.564-0.561-0.564h-36.365
	c-0.279,0-0.565,0.114-0.565,0.564v8.4c0,8.751,0,16.288,0.462,20.362c0.274,2.655,0.851,4.761,3.711,5.135
	c1.339,0.198,3.414,0.39,4.86,0.39c1.026,0,1.515,0.274,1.515,0.763c0,0.687-0.763,0.946-1.888,0.946
	c-6.222,0-12.196-0.26-14.858-0.26c-2.201,0-8.175,0.26-12.009,0.26c-1.251,0-1.899-0.26-1.899-0.946
	c0-0.488,0.385-0.763,1.537-0.763c1.412,0,2.56-0.191,3.433-0.39c1.877-0.374,2.361-2.479,2.762-5.226
	c0.465-3.983,0.465-11.521,0.465-20.271v-16.777c0-14.45,0-17.12-0.202-20.157c-0.187-3.25-0.95-4.775-4.097-5.432
	c-0.751-0.198-2.361-0.29-3.711-0.29c-1.053,0-1.614-0.198-1.614-0.87c0-0.655,0.664-0.839,2.025-0.839
	c5.135,0,11.108,0.29,13.695,0.29c2.277,0,8.251-0.29,11.986-0.29c1.328,0,1.976,0.184,1.976,0.839c0,0.672-0.561,0.87-1.675,0.87
	c-0.763,0-1.614,0.092-2.762,0.29c-2.586,0.466-3.327,2.098-3.536,5.432c-0.176,3.037-0.176,5.707-0.176,20.157v2.007
	c0,0.496,0.286,0.687,0.565,0.687H-110.961z M25.799,312.46c-3.975-5.34-4.723-9.224-4.822-13.519
	c-0.126-7.538,6.534-17.494,23.109-17.494c4.685,0,8.983,0.938,11.547,1.96c1.61,0.604,1.61,1.358,1.61,2.495
	c0,3.136-0.774,10.796-1.049,12.169c-0.199,1.442-0.561,1.647-1.148,1.647s-0.652-0.366-0.652-1.831c0-2.472-0.66-5.523-2.762-8.011
	c-1.923-2.266-5.222-4.272-10.571-4.272c-4.001,0-10.177,2.762-10.177,10.88c0,8.965,8.175,16.563,15.789,25.009
	c3.246,3.724,14.946,14.313,16.747,15.915c1.922-2.655,4.563-8.85,4.563-14.648c0-1.465-0.362-3.15-1.801-4.402
	c-1.225-1.137-3.224-1.411-4.662-1.411c-0.564,0-1.152-0.198-1.152-0.763c0-0.732,0.79-0.962,1.537-0.962
	c2.3,0,6.077,0.1,11.425,0.688c1.785,0.167,3.242,0.732,3.242,1.899c0,7.332-3.906,16.159-9.342,22.545
	c6.397,5.226,10.662,7.813,13.233,9.323c3.074,1.8,8.301,3.342,10.2,3.342c0.84,0,1.313,0.083,1.313,0.854
	c0,0.595-0.756,0.854-2.846,0.854h-7.316c-10.842,0-14.298-1.054-22.469-7.324c-3.151,2.853-9.525,8.651-22.583,8.651
	c-20.359,0-26.459-12.757-26.459-21.042C10.304,323.882,20.115,315.222,25.799,312.46z M55.634,344.352
	c-5.539-4.761-14.675-13.703-17.136-16.357c-2.487-2.686-8.571-9.553-10.173-11.918c-3.25,2.365-6.6,6.867-6.6,14.466
	c0,11.887,8.373,19.516,18.288,19.516C47.333,350.058,53.631,346.259,55.634,344.352z M132.916,283.148
	c0.29-1.633,0.847-2.487,1.64-2.487c0.732,0,1.336,0.48,2.563,2.944l25.986,53.711l25.879-54.366
	c0.778-1.503,1.251-2.289,2.121-2.289c0.839,0,1.419,0.931,1.724,2.944l8.621,58.823c0.87,6.012,1.816,8.789,4.692,9.636
	c2.762,0.847,4.646,0.954,5.913,0.954c0.847,0,1.495,0.083,1.495,0.655c0,0.794-1.137,1.054-2.472,1.054
	c-2.373,0-15.511-0.26-19.333-0.565c-2.197-0.167-2.762-0.488-2.762-1.061c0-0.473,0.412-0.771,1.053-1.037
	c0.58-0.214,0.854-1.442,0.496-4.097l-5.723-41.886h-0.366l-20.774,43.221c-2.197,4.479-2.655,5.333-3.525,5.333
	c-0.839,0-1.83-1.923-3.341-4.761c-2.259-4.372-9.789-18.937-10.94-21.592c-0.854-2.014-6.562-13.999-9.919-21.163h-0.366
	l-4.959,37.91c-0.168,1.709-0.274,2.938-0.274,4.471c0,1.793,1.251,2.663,2.861,3.036c1.724,0.374,3.028,0.481,3.997,0.481
	c0.756,0,1.45,0.183,1.45,0.655c0,0.87-0.878,1.054-2.297,1.054c-3.998,0-8.301-0.26-10.024-0.26c-1.786,0-6.348,0.26-9.415,0.26
	c-0.916,0-1.693-0.184-1.693-1.054c0-0.473,0.564-0.655,1.525-0.655c0.763,0,1.404,0,2.823-0.306c2.7-0.549,3.464-4.272,3.952-7.507
	L132.916,283.148z M233.448,329.894c-0.458,0-0.672,0.176-0.839,0.755l-5.188,13.596c-0.9,2.381-1.381,4.669-1.381,5.813
	c0,1.709,0.832,2.961,3.784,2.961h1.442c1.144,0,1.434,0.183,1.434,0.763c0,0.763-0.587,0.946-1.64,0.946
	c-3.029,0-7.118-0.26-10.063-0.26c-1.053,0-6.287,0.26-11.246,0.26c-1.251,0-1.823-0.184-1.823-0.946c0-0.58,0.39-0.763,1.137-0.763
	c0.862,0,2.197-0.107,2.976-0.191c4.349-0.572,6.195-3.837,8.072-8.583l23.895-59.769c1.145-2.777,1.725-3.814,2.679-3.814
	c0.861,0,1.427,0.854,2.388,3.052c2.289,5.241,17.502,44.098,23.59,58.556c3.632,8.567,6.363,9.896,8.377,10.36
	c1.419,0.282,2.861,0.39,4.028,0.39c0.748,0,1.221,0.083,1.221,0.763c0,0.763-0.839,0.946-4.363,0.946
	c-3.449,0-10.392,0-18.021-0.184c-1.724-0.076-2.838-0.076-2.838-0.763c0-0.58,0.366-0.763,1.328-0.87
	c0.671-0.198,1.342-1.061,0.861-2.167l-7.621-20.202c-0.191-0.473-0.474-0.648-0.962-0.648H233.448z M252.873,325.141
	c0.457,0,0.572-0.29,0.457-0.58l-8.529-23.529c-0.114-0.381-0.214-0.839-0.48-0.839c-0.313,0-0.496,0.458-0.588,0.839l-8.773,23.423
	c-0.092,0.396,0,0.687,0.404,0.687H252.873z M354.068,348.349c0,2.595-0.106,2.777-1.251,3.434
	c-6.164,3.234-15.487,4.295-22.919,4.295c-23.338,0-43.983-11.047-43.983-37.315c0-15.213,7.896-25.909,16.549-31.15
	c9.155-5.501,17.624-6.164,25.635-6.164c6.561,0,14.923,1.121,16.846,1.503c1.983,0.389,5.295,0.938,7.492,1.061
	c1.151,0.083,1.35,0.465,1.35,1.137c0,1.045-0.671,3.707-0.671,15.602c0,1.526-0.298,2.007-1.038,2.007
	c-0.679,0-0.861-0.48-0.938-1.236c-0.313-2.167-0.785-5.233-3.25-7.889c-2.86-3.067-10.467-7.438-21.232-7.438
	c-5.226,0-12.184,0.389-18.845,5.897c-5.348,4.501-8.751,11.635-8.751,23.361c0,20.432,13.023,35.767,33.112,35.767
	c2.486,0,5.798,0,8.117-1.068c1.419-0.648,1.815-1.885,1.815-3.51v-8.949c0-4.753,0-8.369-0.137-11.207
	c-0.107-3.235-0.938-4.776-4.12-5.447c-0.717-0.184-2.342-0.275-3.678-0.275c-0.839,0-1.427-0.198-1.427-0.763
	c0-0.763,0.688-0.953,1.984-0.953c4.967,0,10.963,0.274,13.816,0.274c2.96,0,7.996-0.274,11.132-0.274
	c1.243,0,1.922,0.19,1.922,0.953c0,0.564-0.572,0.763-1.243,0.763c-0.756,0-1.404,0.092-2.556,0.275
	c-2.602,0.457-3.532,2.098-3.647,5.447c-0.084,2.838-0.084,6.652-0.084,11.398V348.349z M378.048,310.354
	c0-14.442,0-17.105-0.206-20.157c-0.198-3.25-1.129-4.844-3.22-5.325c-1.037-0.29-2.304-0.396-3.433-0.396
	c-0.946,0-1.511-0.168-1.511-0.946c0-0.579,0.747-0.763,2.258-0.763c3.624,0,9.636,0.29,12.375,0.29c2.381,0,8.011-0.29,11.612-0.29
	c1.251,0,2.006,0.184,2.006,0.763c0,0.778-0.557,0.946-1.51,0.946c-0.977,0-1.74,0.106-2.892,0.29
	c-2.563,0.466-3.281,2.098-3.495,5.432c-0.213,3.052-0.213,5.715-0.213,20.157v16.777c0,9.239,0,16.746,0.427,20.836
	c0.244,2.57,0.931,4.295,3.784,4.685c1.313,0.183,3.434,0.366,4.853,0.366c1.068,0,1.526,0.305,1.526,0.771
	c0,0.679-0.764,0.938-1.801,0.938c-6.287,0-12.299-0.26-14.862-0.26c-2.175,0-8.187,0.26-12.001,0.26
	c-1.236,0-1.885-0.26-1.885-0.938c0-0.466,0.382-0.771,1.488-0.771c1.441,0,2.556-0.184,3.426-0.366
	c1.938-0.39,2.51-2.015,2.776-4.761c0.496-4.014,0.496-11.521,0.496-20.76V310.354z M421.527,345.717
	c-9.308-8.217-11.81-18.875-11.81-28.114c0-6.47,2.021-17.685,11.154-26.093c6.866-6.278,15.884-10.063,30.074-10.063
	c5.913,0,9.438,0.358,13.825,0.938c3.601,0.466,6.652,1.343,9.521,1.626c1.037,0.083,1.419,0.571,1.419,1.137
	c0,0.777-0.306,1.915-0.496,5.249c-0.145,3.128-0.068,8.377-0.298,10.269c-0.061,1.404-0.274,2.197-1.129,2.197
	c-0.748,0-0.946-0.793-0.946-2.113c-0.076-2.938-1.327-6.279-3.708-8.766c-3.128-3.334-10.574-5.891-19.325-5.891
	c-8.285,0-13.687,2.106-17.906,5.891c-6.958,6.408-8.75,15.465-8.75,24.688c0,22.621,17.234,33.866,29.99,33.866
	c8.477,0,13.627-0.938,17.426-5.31c1.633-1.809,2.846-4.585,3.22-6.287c0.306-1.533,0.504-1.914,1.282-1.914
	c0.641,0,0.839,0.663,0.839,1.426c0,1.138-1.16,9.438-2.121,12.673c-0.435,1.617-0.847,2.091-2.434,2.747
	c-3.838,1.541-11.07,2.204-17.158,2.204C441.136,356.077,430.188,353.217,421.527,345.717z M-431.827,264.686
	c-0.072,0.045-0.137,0.061-0.236,0.106c-1.587,0.473-2.586,0.336-2.888-0.595c-0.214-0.688,0.198-1.282,1.838-1.786
	c2.022-0.687,3.559-1.479,4.711-2.136c2.537-1.435,4.024-3.846,4.223-8.087c0.362-6.111,0.648-64.278,0.648-78.323v-25.482
	c0-22.011,0-26.085-0.286-30.739c-0.297-4.905-1.713-7.354-4.837-8.079c-1.537-0.435-3.361-0.572-5.074-0.572
	c-1.438,0-2.273-0.306-2.273-1.465c0-0.877,1.125-1.137,3.399-1.159c5.386,0,14.32,0.419,18.421,0.419
	c3.563,0,11.959-0.419,17.36-0.396c1.824,0,2.972,0.26,2.972,1.137c0,1.159-0.874,1.465-2.285,1.465
	c-1.423,0-2.537,0.138-4.25,0.427c-3.837,0.726-4.986,3.197-5.275,8.225c-0.26,4.654-0.26,8.729-0.26,30.739v25.482
	c0,14.045,0,66.047,0.549,72.272c0.45,3.906,1.423,6.516,5.699,7.088c1.999,0.298,5.123,0.184,7.248,0.184
	c1.564,0,2.262,0.854,2.262,1.563c0,1-1.164,1.335-2.712,1.663C-410.731,260.367-431.827,264.686-431.827,264.686z M-373.1,252.593
	c-1.823,0.206-3.151,0.198-3.338-1.335c-0.099-1.008,0.687-1.458,2.075-1.641c1.824-0.206,4.349-0.687,6.226-1.595
	c3.487-1.815,3.899-9.621,4.047-24.49l0.027-113.075c-0.19-3.548,1.587-4.379,2.999-4.379c1.56,0,2.937,0.793,5.348,3.845
	c1.686,2.235,23.285,29.289,44.018,54.069c9.636,11.612,28.358,35.95,30.758,38.696l-0.251-76.622
	c-0.149-10.398-1.412-13.656-4.837-15.365c-2.125-1.015-5.535-1.015-7.484-1.015c-1.713,0-2.3-0.512-2.3-1.549
	c0-1.351,1.561-1.533,3.689-1.533c7.396,0,14.183,0.511,17.182,0.511c1.564,0,6.961-0.511,13.912-0.511
	c1.861,0,3.273,0.183,3.273,1.533c0,1.037-0.851,1.549-2.563,1.549c-1.412,0-2.56,0-4.25,0.504
	c-3.971,1.388-5.123,4.989-5.249,14.526l-0.023,106.788c0,3.784-2.125,6.508-3.388,6.508c-1.564,0-3.273-1.869-4.81-3.754
	c-8.961-10.262-27.146-32.669-41.92-50.277c-15.445-18.479-30.243-39.741-32.779-42.999l0.148,80.345
	c0.275,13.344,2.125,20.439,4.986,21.63c2.388,1.045,5.1,1.205,7.362,1.205c1.564,0,2.426,0.351,2.426,1.358
	c0,1.357-1.301,1.419-3.277,1.716C-351.592,248.869-373.1,252.593-373.1,252.593z M-231.403,234
	c-3.097,0.137-6.733,0.656-9.46,0.732c-1.762,0.007-2.762-0.458-2.785-1.572c0-0.809,0.511-1.297,2.174-1.343
	c2.075-0.061,3.712-0.396,4.925-0.74c2.708-0.709,3.35-4.081,3.811-8.766c0.561-6.806,0.774-25.528,0.774-40.397v-28.45
	c0-24.552,0-29.068-0.263-34.218c-0.275-5.531-1.385-8.11-5.909-9.239c-1.103-0.344-3.414-0.465-5.336-0.465
	c-1.526,0-2.354-0.352-2.354-1.488s0.954-1.449,3.025-1.449c7.274,0,15.922,0.488,19.749,0.488c4.272,0,12.947-0.488,21.145-0.488
	c17.186,0,40.081,0,55.065,18.425c6.862,8.423,13.325,21.813,13.325,41.038c0,20.378-7.301,35.874-14.961,45.09
	c-6.325,7.606-18.41,17.967-46.005,19.073C-194.484,230.23-230.491,233.938-231.403,234z M-214.778,171.225
	c0,17.136,0.637,25.65,0.248,32.662c-0.248,5.073-0.461,14.328,0.614,16.105c1.796,3.082,10.761,1.991,21.545,0.809
	c26.47-2.93,41.53-28.946,41.229-50.041c-0.263-20.53-8.049-33.775-13.962-40.421c-12.619-14.198-28.267-16.151-39.001-16.151
	c-2.739,0-7.812,0.52-8.911,1.145c-1.225,0.656-1.641,1.45-1.641,3.235c-0.122,5.5-0.122,19.546-0.122,32.317V171.225z
	 M-110.122,151.603c-0.054-22.141-0.054-29.099-0.351-33.753c-0.313-4.951-1.461-7.278-6.149-8.308
	c-1.125-0.306-3.536-0.412-5.539-0.412c-1.561,0-2.399-0.298-2.399-1.336c0-1.007,0.977-1.289,3.101-1.289
	c7.549,0,16.483,0.412,20.748,0.412c3.395,0,12.333-0.412,17.456-0.412c2.102,0,3.102,0.282,3.102,1.289
	c0,1.038-0.824,1.336-2.251,1.336c-1.56,0-2.411,0.106-4.124,0.412c-3.822,0.747-4.948,3.212-5.226,8.308
	c-0.259,4.654-0.259,11.612-0.21,33.753l0.038,20.354c0.05,21.149,4.2,30.045,11.135,35.844c6.424,5.409,12.932,5.981,17.772,5.981
	c6.249,0,13.882-2.037,19.543-7.844c7.79-8.025,8.213-21.133,8.187-36.133l-0.023-18.203c-0.077-22.141-0.077-29.099-0.374-33.753
	c-0.29-4.951-1.438-7.278-6.126-8.308c-1.148-0.306-3.563-0.412-5.096-0.412c-1.564,0-2.415-0.298-2.415-1.336
	c0-1.007,1-1.289,2.976-1.289c7.221,0,16.182,0.412,16.308,0.412c1.702,0,10.662-0.412,16.213-0.412
	c1.972,0,2.975,0.282,2.975,1.289c0,1.038-0.866,1.336-2.563,1.336c-1.564,0-2.399,0.106-4.101,0.412
	c-3.838,0.747-4.986,3.212-5.249,8.308c-0.275,4.654-0.275,11.612-0.225,33.753l0.027,15.594
	c0.049,16.145-1.488,33.325-13.397,43.823c-10.063,8.889-20.31,11.674-29.533,11.674c-7.522,0-21.122-1.626-31.521-11.23
	c-7.248-6.722-12.646-17.472-12.695-38.612L-110.122,151.603z M123.997,115.622l-21.248,0.32c-8.263,0.29-9.186,1.816-11.161,4.158
	c-2.197,2.609-1.824,5.905-2.197,7.492c-0.275,1.159-0.237,1.503-1.13,1.503c-0.869,0-1.297-1.16-1.571-2.869
	c-0.138-0.899-0.198-12.474-0.138-17.73c0.038-1.801,0.778-2.678,1.618-2.678c1.113,0,2.776,1.274,6.316,1.549
	c4.15,0.427,9.476,0.343,14.16,0.343l56.229-0.022c4.532,0,7.69-0.427,9.781-0.71c2.136-0.427,3.28-0.739,3.853-0.739
	c0.984,0,1.137,0.862,1.137,3.036c0.016,3.014-0.366,12.985-0.351,16.724c-0.16,1.465-0.428,2.304-1.259,2.304
	c-1.152,0-1.45-0.709-1.579-2.868l-0.146-1.587c-0.298-3.754-4.158-7.774-16.8-8.087l-17.876-0.428l0.268,62.63
	c0.038,13.282,0.282,25.253,0.923,31.464c0.382,4.051,1.206,7.24,5.425,7.873c1.999,0.328,0.9,0.068,3.028,0.39
	c2.999,0.411,3.487,0.953,3.586,1.709c0.062,0.381-0.32,1.563-1.831,1.602c-6.76,0.146-13.062-0.465-20.248-0.526
	c-3.266-0.016-12.345-0.259-18.028-0.259c-1.861,0-2.647-0.618-2.647-1.648c0-0.71,0.687-1.693,2.411-1.693
	c2.121,0,3.548-0.252,4.837-0.542c2.838-0.58,3.8-3.434,4.181-7.637c0.702-6.065,0.672-17.441,0.61-30.731L123.997,115.622z
	 M-54.649,288.062l-13.832,0.328c-5.424,0.183-6.062,0.755-7.351,2.22c-1.472,1.625-1.247,3.724-1.472,4.7
	c-0.187,0.717-0.187,0.953-0.751,0.953c-0.588,0-0.874-0.725-1.049-1.793c-0.076-0.549-0.099-7.857-0.049-11.153
	c0.026-1.137,0.511-1.725,1.076-1.725c0.748,0,1.823,0.793,4.2,1.007c2.735,0.252,6.271,0.191,9.346,0.191h37.182
	c2.999,0,5.074-0.252,6.462-0.45c1.411-0.275,2.174-0.412,2.537-0.412c0.66,0,1.049,0.595,1.049,1.961
	c0,1.96-0.213,7.805-0.213,10.398c-0.126,0.931,0.137,2.365-0.835,2.411c-0.725,0-1.103-0.702-1.103-2.633l-0.049-0.663
	c-0.412-2.449-3.163-4.83-11.536-5.013l-11.673-0.313l-0.022,38.971c0,8.361,0.122,15.907,0.538,19.821
	c0.248,2.532,0.736,5.34,3.51,5.76c1.301,0.206,1.049,0.114,2.449,0.313c2.003,0.275,3.876,0.138,3.952,0.61
	c0.049,0.26,0.049,1.099-0.954,1.114c-4.471,0.1-11.345-0.138-16.132-0.19c-1.351-0.008-7.599,0.274-12.211,0.274
	c-1.209,0-1.209-0.336-1.209-0.969c0-0.458,0.824-0.763,1.923-0.763c1.412,0,2.563-0.366,3.41-0.542
	c1.888-0.374,2.228-3.426,2.525-6.073c0.488-3.814,0.488-10.994,0.488-19.355L-54.649,288.062z M196.873,222.25
	c-1.854,0-3.792-0.152-3.792-1.159c0-0.74,0.923-1.877,2.617-1.877c2.121,0,4.517-0.732,5.783-0.999
	c2.86-0.588,2.884-3.7,3.433-7.866c0.718-6.035,0.718-23.552,0.718-36.789v-25.353c0-21.858,0-25.887-0.29-30.502
	c-0.29-4.891-1.419-7.194-6.111-8.225c-1.106-0.267-3.532-0.404-5.523-0.404c-1.549,0-2.389-0.313-2.389-1.305
	c0-1.015,0.992-1.282,3.113-1.282c7.507,0,16.464,0.428,19.424,0.428c4.845,0,15.625-0.428,20.02-0.428
	c8.942,0,22.583,1.176,30.243,6.493c3.968,2.746,10.147,10.208,10.658,19.852c1.579,28.244-18.569,32.227-20.492,33.798
	c12.634,16.151,27.504,38.682,35.492,47.959c7.591,8.674,11.97,9.644,14.076,10.162c1.541,0.358,4.135,0.839,5.256,0.87
	c1.152,0.076,4.372,0.473,4.952,1.846c0.381,1.084-0.39,1.289-2.091,2.396l-17.074-1.419c-7.92-1.511-11.14-2.418-14.847-4.433
	c-6.081-3.312-11.506-9.864-19.417-20.973c-5.699-7.935-20.363-29.335-22.225-31.51c-0.717-0.854-1.587-1.015-2.563-1.015
	l-12.329-0.29c-0.725,0-1.152,0.29-1.152,1.167v2.015c0,13.39,0,31.929,0.726,37.964c0.427,4.181,0.793,7.813,5.005,8.713
	c1.907,0.396,2.456,0.671,4.707,0.915c1.121,0.13,1.999,1.16,1.839,1.854c-0.198,0.999-1.404,1.144-3.25,1.021
	C220.661,223.242,224.675,223.67,196.873,222.25z M222.362,159.598c0,1.572,0.298,2.159,1.305,2.571
	c2.961,1.015,7.21,1.442,10.773,1.442c5.676,0,8.934-1.389,11.459-3.273c4.272-3.174,12.177-10.262,11.917-22.064
	c-0.336-16.502-6.684-24.559-26.657-25.031c-3.54-0.092-6.096,0.129-7.492,0.571c-1.007,0.29-1.305,0.894-1.305,2.037V159.598z
	 M308.216,229.574c-1.846,0-2.96-1.235-2.96-2.364c0-0.771,0.832-1.382,2.556-1.382c2.19,0,3.548-0.022,5.257-0.449
	c2.854-0.634,3.86-4.556,4.272-9.187c0.732-6.714,0.732-19.363,0.732-34.866v-28.122c0-24.292,0-28.771-0.267-33.858
	c-0.313-5.463-1.725-8.164-4.845-8.973c-1.564-0.488-3.418-0.656-5.143-0.656c-1.373,0-2.243-0.298-2.243-1.579
	c0-0.954,1.129-1.267,3.41-1.267c5.387,0,14.352,0.466,18.456,0.466c3.54,0,11.925-0.466,17.334-0.466
	c1.831,0,2.938,0.313,2.938,1.267c0,1.281-0.832,1.579-2.251,1.579c-1.411,0-2.548,0.168-4.234,0.512
	c-3.838,0.801-4.982,3.517-5.271,9.117c-0.29,5.088-0.29,9.566-0.29,33.858v28.122c0,15.503,0.213,32.006,0.687,38.864
	c0.313,4.334,0.092,6.439,3.799,7.957c1.435,0.588,1.816,0.694,4.105,1.16c1.51,0.328,2.853,0.618,2.548,2.175
	c-0.244,1.099-1.267,1.51-2.815,1.327C334.118,231.727,338.879,232.428,308.216,229.574z M438.053,243.826
	c-5.379-0.687-5.157-1.373-4.897-2.449c0.213-1.099,2.548-0.351,4.059-0.648c2.258-0.389,4.608-0.862,2.67-5.813l-14.129-42.831
	c-0.321-0.832-0.778-1.137-1.557-1.137h-34.004c-0.764,0-1.092,0.305-1.412,1.297l-8.263,26.009
	c-1.487,4.112-1.945,7.492-2.06,9.445c-0.146,2.96,1.319,5.264,5.745,6.408c0,0,3.433,0.511,3.662,1.983
	c0.19,1.213-0.648,1.648-2.259,1.435c-3.845-0.549-2.876-0.244-33.256-3.616c-1.389-0.168-2.343-1.236-2.289-2.015
	c0.054-0.991,1.19-1.083,2.388-1.083c1.389,0,2.197-0.038,3.426-0.214c7.026-0.961,9.88-6.722,12.924-14.893l38.315-102.936
	c1.823-4.753,2.762-6.562,4.28-6.562c1.381,0,2.288,1.48,3.814,5.249c3.677,9.019,30.686,87.86,40.069,113.007
	c5.065,13.58,5.363,17.112,9.049,19.111c2.304,1.259,2.136,1.092,4.409,1.747c1.16,0.328,1.854,0.61,1.793,1.755
	c-0.038,0.748-0.412,1.45-5.47,0.564L438.053,243.826z M421.329,182.723c0.771,0,0.916-0.48,0.771-0.969l-13.771-40.481
	c-0.152-0.672-0.29-1.488-0.748-1.488c-0.465,0-0.763,0.816-0.915,1.488l-14.054,40.313c-0.183,0.656,0,1.137,0.634,1.137H421.329z
	 M552.174,244.612c2.304-2.297,2.7-3.075,4.715-6.165c2.724-3.586,3.753-7.103,5.859-6.638c1.625,0.71,1.479,1.831,0.625,4.144
	c-0.633,2.51-7.813,19.035-9.934,23.742c0,0-2.548,4.868-8.057,3.83c-36.514-7.218-25.848-5.928-67.87-13.534
	c-1.877-0.32-3.22-0.809-3.22-2.145c0-0.915,0.625-1.487,2.388-1.487c2.189,0,3.975-0.382,5.317-0.763
	c2.953-0.732,3.678-4.837,4.265-10.247c0.74-7.819,0.74-22.361,0.74-39.52v-35.286c0-28.336,0-33.547-0.274-39.521
	c-0.305-6.316-1.487-9.338-6.332-10.628c-1.206-0.373-2.976-0.557-4.906-0.557c-1.663,0-2.525-0.366-2.525-1.686
	c0-1.297,1.068-1.664,3.25-1.671c6.974,0,16.251,0.557,20.264,0.557c3.533,0,14.344-0.557,20.104-0.55
	c2.075,0,3.113,0.367,3.113,1.664c0,1.319-0.878,1.686-2.663,1.686c-1.609,0-3.997,0.184-5.783,0.557
	c-3.99,0.932-5.165,4.098-5.447,10.628c-0.328,5.974-0.328,11.185-0.328,39.521v35.286v43.221c0,0-1.289,4.15,11.132,8.179
	c12.649,2.73,7.987,2.182,22.575,4.317C539.181,251.547,544.88,252.409,552.174,244.612z M4.692,217.215
	c-2.686-1.007-3.174-1.747-3.2-4.959c-0.077-8.064,0.515-16.906,0.664-19.257c0.175-2.212,0.664-3.83,1.976-3.83
	c1.511-0.038,1.686,1.305,1.709,2.465c0.026,1.938,0.675,5.013,1.537,7.515c3.765,10.85,13.737,14.816,24.208,14.794
	c15.385-0.062,22.923-9.163,22.896-17.113c-0.023-7.347-1.587-15.381-15.907-24.887l-7.889-5.219
	C11.967,154.311,4.467,145.255,4.38,133.262c-0.176-19.425,18.158-28.847,39.093-29.694c11.261-0.442,16.56,1.511,21.896,1.572
	c1.609,0,3.742,0.19,3.742,1.815c0,1.999-0.702,6.416-0.641,18.272c0.022,3.342-0.488,4.563-1.927,4.616
	c-1.202,0.03-1.851-1.496-1.851-3.312c0-1.366,0.648-4.822-3.688-9.14c-2.735-2.671-7.683-7.157-18.97-6.729
	c-12.684,0.504-22.007,7.545-21.946,16.502c0.027,6.89,4.013,11.971,18.211,21.02l4.811,3.036
	c21.045,13.245,28.579,23.521,28.633,37.85c0.054,8.735-2.8,18.783-15.274,25.849c-8.572,4.799-18.169,6.11-27.195,6.11
	C19.49,221.029,11.891,220.008,4.692,217.215"/>
<path id="path3382" fill="#6A91C8" d="M220.127-142.888l-44.876-4.139c-0.274-15.804-3.914-30.571-10.224-43.739l36.332-24.715
	c0.633-0.366,0.854-1.148,0.519-1.77c-0.351-0.645-1.137-0.866-1.747-0.522l-40.153,17.658
	c-8.538-13.912-20.218-25.604-34.157-34.332c10.986-14.839,18.639-32.196,18.639-50.492c0-19.917-7.805-39.665-22.399-53.787
	c-14.526-14.022-36.133-24.238-56.69-24.311h-0.065c-20.53,0.073-42.129,10.289-56.663,24.311
	c-14.595,14.122-22.407,33.871-22.407,53.787c0,18.295,7.671,35.652,18.608,50.492c-13.924,8.728-25.582,20.405-34.104,34.309
	l-40.13-17.673c-0.637-0.366-1.438-0.122-1.751,0.511c-0.374,0.61-0.149,1.404,0.488,1.77l36.343,24.715
	c-6.325,13.157-9.96,27.923-10.25,43.766l-44.864,4.089c-0.736,0-1.301,0.599-1.301,1.327c0,0.709,0.564,1.305,1.301,1.305
	l45.181,4.154c1.247,15.095,5.508,29.377,12.207,42.152l-38.643,26.291c-0.61,0.339-0.862,1.133-0.511,1.77
	c0.362,0.633,1.137,0.866,1.774,0.5l43.068-18.967C-17.353-70.817-5.42-59.373,8.53-50.939L-10.853-6.891
	c-0.366,0.648-0.129,1.442,0.511,1.782C-9.704-4.766-8.93-4.976-8.594-5.62l27.195-39.91c12.523,5.882,26.371,9.495,40.993,10.25
	l4.414,48.454c0,0.732,0.583,1.305,1.324,1.305c0.725,0,1.285-0.572,1.285-1.305l4.479-48.454
	c14.572-0.732,28.366-4.345,40.978-10.239L139.24-5.586c0.328,0.637,1.114,0.843,1.755,0.503c0.634-0.343,0.84-1.137,0.504-1.785
	l-19.395-44.044c13.978-8.434,25.925-19.894,34.897-33.455l43.075,18.956c0.626,0.354,1.404,0.133,1.771-0.5
	c0.358-0.637,0.122-1.43-0.488-1.785l-38.636-26.298c6.684-12.768,10.986-27.023,12.177-42.129l45.227-4.177
	c0.725,0,1.328-0.572,1.328-1.282C221.455-142.289,220.852-142.888,220.127-142.888z M21.626-325.25
	c11.185-11.524,27.733-19.897,43.579-19.958h0.29c15.846,0.061,32.356,8.434,43.563,19.958
	c11.238,11.566,17.258,27.786,17.258,44.155c0,18.356-10.59,33.539-21.622,46.463c-10.559,12.386-17.692,21.408-20.4,37.384
	l-3.83,23.873H50.221l-3.811-23.873c-2.712-15.976-9.861-24.998-20.436-37.384c-11.009-12.924-21.622-28.107-21.622-46.463
	C4.353-297.463,10.38-313.684,21.626-325.25z M65.342-54.769c-53.401,0-96.732-43.328-96.732-96.737
	c0-11.887,2.174-23.434,6.088-34.195c1.213-3.345,2.674-6.801,4.463-10.364c6.76-13.645,16.521-25.631,28.37-34.893
	c1.621,2.086,3.334,4.112,5.096,6.077c11.788,13.195,17.959,29.11,19.699,43.022l4.585,38.715h56.851l4.616-38.715
	c1.709-13.913,7.881-29.827,19.668-43.022c1.771-1.964,3.494-3.99,5.112-6.077c11.871,9.3,21.621,21.274,28.411,34.916
	c1.648,3.361,3.144,6.836,4.433,10.376c3.922,10.753,6.065,22.274,6.065,34.161C162.067-98.096,118.778-54.769,65.342-54.769"/>
</svg>
