<?xml version="1.0" encoding="UTF-8" standalone="no"?>
<!-- Created with Inkscape (http://www.inkscape.org/) -->

<svg
   width="210.04741mm"
   height="296.4371mm"
   viewBox="0 0 210.04741 296.4371"
   version="1.1"
   id="svg1"
   inkscape:export-filename="LOGO.svg"
   inkscape:export-xdpi="96"
   inkscape:export-ydpi="96"
   xmlns:inkscape="http://www.inkscape.org/namespaces/inkscape"
   xmlns:sodipodi="http://sodipodi.sourceforge.net/DTD/sodipodi-0.dtd"
   xmlns="http://www.w3.org/2000/svg"
   xmlns:svg="http://www.w3.org/2000/svg">
  <sodipodi:namedview
     id="namedview1"
     pagecolor="#ffffff"
     bordercolor="#000000"
     borderopacity="0.25"
     inkscape:showpageshadow="2"
     inkscape:pageopacity="0.0"
     inkscape:pagecheckerboard="0"
     inkscape:deskcolor="#d1d1d1"
     inkscape:document-units="mm">
    <inkscape:page
       x="-5.1456113e-17"
       y="0"
       width="210.04739"
       height="296.4371"
       id="page2"
       margin="0"
       bleed="0" />
  </sodipodi:namedview>
  <defs
     id="defs1" />
  <g
     inkscape:groupmode="layer"
     id="layer2"
     inkscape:label="OZADJA"
     transform="translate(-0.01627026,-0.26821515)">
    <rect
       style="opacity:0.186691;fill:#ffce04;fill-opacity:1;fill-rule:evenodd;stroke-width:0.50864;stroke-dasharray:none"
       id="rect21"
       width="210.04741"
       height="296.4371"
       x="0.016270261"
       y="0.26821512"
       sodipodi:type="rect" />
  </g>
  <g
     inkscape:label="Plast 1"
     inkscape:groupmode="layer"
     id="layer1"
     transform="translate(-0.01627026,-0.26821515)">
    <g
       id="g16"
       transform="matrix(1.6564277,0,0,1.5441957,-13.55792,-18.271047)"
       style="stroke-width:1.00042;stroke-dasharray:none">
      <path
         id="path5"
         style="opacity:0.186691;fill:#a606ee;fill-opacity:1;fill-rule:evenodd;stroke-width:1.00042;stroke-dasharray:none"
         d="m 36.263967,36.785792 c -3.114172,0.361987 -5.983039,2.314431 -7.399177,5.123165 -2.109362,3.841299 -2.57533,8.301404 -2.920952,12.596628 -0.417701,6.352279 -0.303269,12.807537 -0.260724,19.201406 0.155608,6.158579 0.495932,12.381438 2.501997,18.282064 1.186227,3.38673 3.337939,6.800672 6.84261,8.111845 3.1898,1.24596 7.2187,1.01601 9.76296,-1.474904 2.874186,-2.768078 3.94919,-6.787072 4.773741,-10.562669 1.173473,-5.917896 1.335714,-11.976928 1.463307,-18.013452 -10e-4,-2.07128 0.126725,-4.155626 -0.201262,-6.207442 -0.0875,-1.222441 0.163221,-2.903672 1.537109,-3.289062 1.446297,-0.335446 2.834922,0.51601 4.065561,1.1661 2.294814,1.237209 3.961425,3.280939 5.930362,4.937625 1.769028,1.581942 3.762929,3.166979 5.840374,4.191394 1.867026,1.059338 4.454171,1.263481 6.1305,-0.269729 0.880485,-0.752923 1.075678,-1.975042 1.543264,-2.983471 1.358792,-3.626899 1.700179,-7.857572 -0.107542,-11.397213 -1.944775,-3.985972 -5.731591,-6.631865 -9.536219,-8.674979 -5.000925,-2.822426 -9.995722,-5.665715 -15.029987,-8.421813 -3.528351,-1.122637 -7.107881,-2.376725 -10.860641,-2.326827 -1.35604,-0.01575 -2.723571,-0.102395 -4.075281,0.01133 z" />
      <path
         id="path12"
         style="opacity:0.186691;fill:#1cf0b4;fill-opacity:1;fill-rule:evenodd;stroke-width:1.00042;stroke-dasharray:none"
         d="m 104.09014,36.742824 c -3.33889,-0.05145 -6.686805,0.432261 -9.836453,1.556273 -1.57609,0.420235 -3.147024,0.914257 -4.520272,1.81874 -5.50864,3.089351 -11.092126,6.052317 -16.517421,9.284917 -3.570761,2.302031 -6.783888,5.716475 -7.529965,10.03848 -0.64156,3.690173 0.451039,7.472929 2.109117,10.745736 1.395864,1.526411 3.748165,1.921648 5.615835,1.07979 3.00117,-1.098777 5.385769,-3.320051 7.815861,-5.379921 1.624522,-1.485747 3.156843,-3.111377 5.116647,-4.169139 1.276475,-0.735101 2.795582,-1.497819 4.299384,-1.121361 1.36928,0.582148 1.465813,2.32243 1.327155,3.601376 -0.342347,1.95248 -0.13743,3.93084 -0.154583,5.900133 0.112973,6.972272 0.341861,13.961931 2.134068,20.732866 0.932754,3.335908 2.433422,6.828503 5.443793,8.78482 2.617464,1.576666 5.946534,1.521276 8.718164,0.454466 2.88193,-1.142757 4.95849,-3.688737 6.15064,-6.48402 1.92777,-4.271727 2.4853,-8.868741 2.90358,-13.493679 0.49588,-6.733489 0.33428,-13.529454 0.2697,-20.292825 -0.14177,-5.010848 -0.33873,-9.957546 -1.84901,-14.790073 -0.96688,-3.268001 -3.20335,-6.582638 -6.62713,-7.698434 -1.55571,-0.554941 -3.23153,-0.656385 -4.86911,-0.568145 z" />
    </g>
    <g
       id="g23"
       transform="matrix(1.6564277,0,0,-1.5441957,-13.55792,318.24058)"
       style="stroke-width:1.00042;stroke-dasharray:none">
      <path
         id="path22"
         style="opacity:0.186691;fill:#a606ee;fill-opacity:1;fill-rule:evenodd;stroke-width:1.00042;stroke-dasharray:none"
         d="m 36.263967,36.785792 c -3.114172,0.361987 -5.983039,2.314431 -7.399177,5.123165 -2.109362,3.841299 -2.57533,8.301404 -2.920952,12.596628 -0.417701,6.352279 -0.303269,12.807537 -0.260724,19.201406 0.155608,6.158579 0.495932,12.381438 2.501997,18.282064 1.186227,3.38673 3.337939,6.800672 6.84261,8.111845 3.1898,1.24596 7.2187,1.01601 9.76296,-1.474904 2.874186,-2.768078 3.94919,-6.787072 4.773741,-10.562669 1.173473,-5.917896 1.335714,-11.976928 1.463307,-18.013452 -10e-4,-2.07128 0.126725,-4.155626 -0.201262,-6.207442 -0.0875,-1.222441 0.163221,-2.903672 1.537109,-3.289062 1.446297,-0.335446 2.834922,0.51601 4.065561,1.1661 2.294814,1.237209 3.961425,3.280939 5.930362,4.937625 1.769028,1.581942 3.762929,3.166979 5.840374,4.191394 1.867026,1.059338 4.454171,1.263481 6.1305,-0.269729 0.880485,-0.752923 1.075678,-1.975042 1.543264,-2.983471 1.358792,-3.626899 1.700179,-7.857572 -0.107542,-11.397213 -1.944775,-3.985972 -5.731591,-6.631865 -9.536219,-8.674979 -5.000925,-2.822426 -9.995722,-5.665715 -15.029987,-8.421813 -3.528351,-1.122637 -7.107881,-2.376725 -10.860641,-2.326827 -1.35604,-0.01575 -2.723571,-0.102395 -4.075281,0.01133 z" />
      <path
         id="path23"
         style="opacity:0.186691;fill:#1cf0b4;fill-opacity:1;fill-rule:evenodd;stroke-width:1.00042;stroke-dasharray:none"
         d="m 104.09014,36.742824 c -3.33889,-0.05145 -6.686805,0.432261 -9.836453,1.556273 -1.57609,0.420235 -3.147024,0.914257 -4.520272,1.81874 -5.50864,3.089351 -11.092126,6.052317 -16.517421,9.284917 -3.570761,2.302031 -6.783888,5.716475 -7.529965,10.03848 -0.64156,3.690173 0.451039,7.472929 2.109117,10.745736 1.395864,1.526411 3.748165,1.921648 5.615835,1.07979 3.00117,-1.098777 5.385769,-3.320051 7.815861,-5.379921 1.624522,-1.485747 3.156843,-3.111377 5.116647,-4.169139 1.276475,-0.735101 2.795582,-1.497819 4.299384,-1.121361 1.36928,0.582148 1.465813,2.32243 1.327155,3.601376 -0.342347,1.95248 -0.13743,3.93084 -0.154583,5.900133 0.112973,6.972272 0.341861,13.961931 2.134068,20.732866 0.932754,3.335908 2.433422,6.828503 5.443793,8.78482 2.617464,1.576666 5.946534,1.521276 8.718164,0.454466 2.88193,-1.142757 4.95849,-3.688737 6.15064,-6.48402 1.92777,-4.271727 2.4853,-8.868741 2.90358,-13.493679 0.49588,-6.733489 0.33428,-13.529454 0.2697,-20.292825 -0.14177,-5.010848 -0.33873,-9.957546 -1.84901,-14.790073 -0.96688,-3.268001 -3.20335,-6.582638 -6.62713,-7.698434 -1.55571,-0.554941 -3.23153,-0.656385 -4.86911,-0.568145 z" />
    </g>
  </g>
</svg>
