<?xml version="1.0" encoding="UTF-8" standalone="no"?>
<!-- Created with Inkscape (http://www.inkscape.org/) -->

<svg
   width="210mm"
   height="297mm"
   viewBox="0 0 210 297"
   version="1.1"
   id="svg1"
   inkscape:export-filename="LOGO.svg"
   inkscape:export-xdpi="96"
   inkscape:export-ydpi="96"
   sodipodi:docname="Smolič_Mirjam_grafika.svg"
   inkscape:version="1.3.2 (091e20e, 2023-11-25, custom)"
   xmlns:inkscape="http://www.inkscape.org/namespaces/inkscape"
   xmlns:sodipodi="http://sodipodi.sourceforge.net/DTD/sodipodi-0.dtd"
   xmlns="http://www.w3.org/2000/svg"
   xmlns:svg="http://www.w3.org/2000/svg">
  <sodipodi:namedview
     id="namedview1"
     pagecolor="#ffffff"
     bordercolor="#000000"
     borderopacity="0.25"
     inkscape:showpageshadow="2"
     inkscape:pageopacity="0.0"
     inkscape:pagecheckerboard="0"
     inkscape:deskcolor="#d1d1d1"
     inkscape:document-units="mm"
     inkscape:zoom="0.5"
     inkscape:cx="396"
     inkscape:cy="562"
     inkscape:window-width="1762"
     inkscape:window-height="980"
     inkscape:window-x="-32000"
     inkscape:window-y="-32000"
     inkscape:window-maximized="0"
     inkscape:current-layer="layer1">
    <inkscape:page
       x="0"
       y="0"
       width="210"
       height="297"
       id="page2"
       margin="0"
       bleed="0" />
  </sodipodi:namedview>
  <defs
     id="defs1" />
  <g
     inkscape:groupmode="layer"
     id="layer2"
     inkscape:label="OZADJA">
    <rect
       style="opacity:0.186691;fill:#ffce04;fill-opacity:1;fill-rule:evenodd;stroke-width:0.50864;stroke-dasharray:none"
       id="rect21"
       width="210.04741"
       height="296.4371"
       x="0.016270261"
       y="0.26821512"
       sodipodi:type="rect" />
    <text
       xml:space="preserve"
       style="font-style:normal;font-variant:normal;font-weight:bold;font-stretch:normal;font-size:5.64444px;line-height:0.9;font-family:Tahoma;-inkscape-font-specification:'Tahoma, Bold';font-variant-ligatures:normal;font-variant-caps:normal;font-variant-numeric:normal;font-variant-east-asian:normal;text-align:center;writing-mode:lr-tb;direction:ltr;text-anchor:middle;opacity:0.186691;fill:#000000;fill-opacity:1;fill-rule:evenodd;stroke-width:1.6;stroke-dasharray:none"
       x="104.24583"
       y="288.92502"
       id="text23"><tspan
         sodipodi:role="line"
         id="tspan23"
         style="font-style:normal;font-variant:normal;font-weight:bold;font-stretch:normal;font-size:5.64444px;font-family:Tahoma;-inkscape-font-specification:'Tahoma, Bold';font-variant-ligatures:normal;font-variant-caps:normal;font-variant-numeric:normal;font-variant-east-asian:normal;fill:#000000;fill-opacity:1;stroke-width:1.6"
         x="105.07265"
         y="288.92502">računalniška_grafika © 2025 by Mirjam is licensed under CC BY 4.0 </tspan></text>
  </g>
  <g
     inkscape:label="Plast 1"
     inkscape:groupmode="layer"
     id="layer1">
    <g
       id="g16"
       transform="matrix(1.6564277,0,0,1.5441957,-13.55792,-18.271047)"
       style="stroke-width:1.00042;stroke-dasharray:none">
      <path
         id="path5"
         style="opacity:0.186691;fill:#a606ee;fill-opacity:1;fill-rule:evenodd;stroke-width:1.00042;stroke-dasharray:none"
         d="m 36.263967,36.785792 c -3.114172,0.361987 -5.983039,2.314431 -7.399177,5.123165 -2.109362,3.841299 -2.57533,8.301404 -2.920952,12.596628 -0.417701,6.352279 -0.303269,12.807537 -0.260724,19.201406 0.155608,6.158579 0.495932,12.381438 2.501997,18.282064 1.186227,3.38673 3.337939,6.800672 6.84261,8.111845 3.1898,1.24596 7.2187,1.01601 9.76296,-1.474904 2.874186,-2.768078 3.94919,-6.787072 4.773741,-10.562669 1.173473,-5.917896 1.335714,-11.976928 1.463307,-18.013452 -10e-4,-2.07128 0.126725,-4.155626 -0.201262,-6.207442 -0.0875,-1.222441 0.163221,-2.903672 1.537109,-3.289062 1.446297,-0.335446 2.834922,0.51601 4.065561,1.1661 2.294814,1.237209 3.961425,3.280939 5.930362,4.937625 1.769028,1.581942 3.762929,3.166979 5.840374,4.191394 1.867026,1.059338 4.454171,1.263481 6.1305,-0.269729 0.880485,-0.752923 1.075678,-1.975042 1.543264,-2.983471 1.358792,-3.626899 1.700179,-7.857572 -0.107542,-11.397213 -1.944775,-3.985972 -5.731591,-6.631865 -9.536219,-8.674979 -5.000925,-2.822426 -9.995722,-5.665715 -15.029987,-8.421813 -3.528351,-1.122637 -7.107881,-2.376725 -10.860641,-2.326827 -1.35604,-0.01575 -2.723571,-0.102395 -4.075281,0.01133 z" />
      <path
         id="path12"
         style="opacity:0.186691;fill:#1cf0b4;fill-opacity:1;fill-rule:evenodd;stroke-width:1.00042;stroke-dasharray:none"
         d="m 104.09014,36.742824 c -3.33889,-0.05145 -6.686805,0.432261 -9.836453,1.556273 -1.57609,0.420235 -3.147024,0.914257 -4.520272,1.81874 -5.50864,3.089351 -11.092126,6.052317 -16.517421,9.284917 -3.570761,2.302031 -6.783888,5.716475 -7.529965,10.03848 -0.64156,3.690173 0.451039,7.472929 2.109117,10.745736 1.395864,1.526411 3.748165,1.921648 5.615835,1.07979 3.00117,-1.098777 5.385769,-3.320051 7.815861,-5.379921 1.624522,-1.485747 3.156843,-3.111377 5.116647,-4.169139 1.276475,-0.735101 2.795582,-1.497819 4.299384,-1.121361 1.36928,0.582148 1.465813,2.32243 1.327155,3.601376 -0.342347,1.95248 -0.13743,3.93084 -0.154583,5.900133 0.112973,6.972272 0.341861,13.961931 2.134068,20.732866 0.932754,3.335908 2.433422,6.828503 5.443793,8.78482 2.617464,1.576666 5.946534,1.521276 8.718164,0.454466 2.88193,-1.142757 4.95849,-3.688737 6.15064,-6.48402 1.92777,-4.271727 2.4853,-8.868741 2.90358,-13.493679 0.49588,-6.733489 0.33428,-13.529454 0.2697,-20.292825 -0.14177,-5.010848 -0.33873,-9.957546 -1.84901,-14.790073 -0.96688,-3.268001 -3.20335,-6.582638 -6.62713,-7.698434 -1.55571,-0.554941 -3.23153,-0.656385 -4.86911,-0.568145 z" />
    </g>
    <path
       id="path22"
       style="opacity:0.186691;fill:#a606ee;fill-opacity:1;fill-rule:evenodd;stroke-width:1.6;stroke-dasharray:none"
       d="m 46.510719,261.43612 c -5.1584,-0.55898 -9.910471,-3.57394 -12.256201,-7.91117 -3.494006,-5.93172 -4.265848,-12.81899 -4.838346,-19.45166 -0.691892,-9.80916 -0.502343,-19.77734 -0.431871,-29.65073 0.257754,-9.51005 0.821476,-19.11936 4.144378,-28.23108 1.964899,-5.22978 5.529054,-10.50157 11.334288,-12.52628 5.283673,-1.92401 11.957255,-1.56892 16.171638,2.27754 4.760881,4.27446 6.541547,10.48057 7.907357,16.31083 1.943773,9.13839 2.212513,18.49472 2.423862,27.81629 -0.0017,3.19847 0.209911,6.4171 -0.333376,9.58551 -0.144938,1.88769 0.270364,4.48384 2.54611,5.07895 2.395686,0.518 4.695843,-0.79682 6.734308,-1.80068 3.801193,-1.91049 6.561814,-5.06641 9.823216,-7.62466 2.930266,-2.44283 6.233019,-4.89044 9.674157,-6.47233 3.092591,-1.63583 7.378011,-1.95107 10.154731,0.41651 1.45846,1.16266 1.78178,3.04985 2.5563,4.60706 2.25074,5.60065 2.81623,12.13363 -0.17813,17.59953 -3.22138,6.15512 -9.49397,10.2409 -15.796059,13.39587 -8.283671,4.35837 -16.557191,8.74897 -24.896087,13.00492 -5.844458,1.73358 -11.773691,3.67013 -17.989866,3.59308 -2.246182,0.0243 -4.511399,0.15812 -6.750409,-0.0175 z" />
    <path
       id="path23"
       style="opacity:0.186691;fill:#1cf0b4;fill-opacity:1;fill-rule:evenodd;stroke-width:1.6;stroke-dasharray:none"
       d="m 158.85987,261.50247 c -5.53063,0.0795 -11.07621,-0.6675 -16.29337,-2.40319 -2.61068,-0.64893 -5.21282,-1.41179 -7.48751,-2.80849 -9.12466,-4.77056 -18.3733,-9.34596 -27.35991,-14.33773 -5.91471,-3.55479 -11.237019,-8.82736 -12.472842,-15.50138 -1.062698,-5.69835 0.747113,-11.53966 3.4936,-16.59352 2.312152,-2.35707 6.208562,-2.9674 9.302222,-1.6674 4.97122,1.69672 8.92114,5.1268 12.94641,8.30765 2.6909,2.29428 5.22908,4.80457 8.47536,6.43796 2.11439,1.13514 4.63068,2.31293 7.12162,1.7316 2.26811,-0.89895 2.42801,-3.58628 2.19833,-5.56123 -0.56707,-3.01501 -0.22764,-6.06998 -0.25605,-9.11096 0.18713,-10.76655 0.56626,-21.55995 3.53493,-32.0156 1.54504,-5.15129 4.03078,-10.54454 9.01725,-13.56548 4.33564,-2.43468 9.85,-2.34915 14.441,-0.70178 4.77371,1.76464 8.21338,5.69613 10.18809,10.01259 3.19322,6.59638 4.11672,13.69507 4.80957,20.83688 0.82139,10.39783 0.55372,20.89213 0.44674,31.3361 -0.23483,7.73773 -0.56108,15.3764 -3.06275,22.83876 -1.60157,5.04644 -5.30612,10.16488 -10.97736,11.88789 -2.57692,0.85694 -5.3528,1.01359 -8.06533,0.87733 z" />
  </g>
</svg>
